<svg aria-roledescription="er" role="graphics-document document" viewBox="0 0 380.90240478515625 518" style="max-width: 380.902px; background-color: white;" xmlns:xlink="http://www.w3.org/1999/xlink" xmlns="http://www.w3.org/2000/svg" width="100%" id="my-svg"><style>#my-svg{font-family:"trebuchet ms",verdana,arial,sans-serif;font-size:16px;fill:#000000;}#my-svg .error-icon{fill:#552222;}#my-svg .error-text{fill:#552222;stroke:#552222;}#my-svg .edge-thickness-normal{stroke-width:2px;}#my-svg .edge-thickness-thick{stroke-width:3.5px;}#my-svg .edge-pattern-solid{stroke-dasharray:0;}#my-svg .edge-pattern-dashed{stroke-dasharray:3;}#my-svg .edge-pattern-dotted{stroke-dasharray:2;}#my-svg .marker{fill:#666;stroke:#666;}#my-svg .marker.cross{stroke:#666;}#my-svg svg{font-family:"trebuchet ms",verdana,arial,sans-serif;font-size:16px;}#my-svg .entityBox{fill:#eee;stroke:#999;}#my-svg .attributeBoxOdd{fill:#ffffff;stroke:#999;}#my-svg .attributeBoxEven{fill:#f2f2f2;stroke:#999;}#my-svg .relationshipLabelBox{fill:hsl(-160, 0%, 93.3333333333%);opacity:0.7;background-color:hsl(-160, 0%, 93.3333333333%);}#my-svg .relationshipLabelBox rect{opacity:0.5;}#my-svg .relationshipLine{stroke:#666;}#my-svg .entityTitleText{text-anchor:middle;font-size:18px;fill:#000000;}#my-svg #MD_PARENT_START{fill:#f5f5f5!important;stroke:#666!important;stroke-width:1;}#my-svg #MD_PARENT_END{fill:#f5f5f5!important;stroke:#666!important;stroke-width:1;}#my-svg :root{--mermaid-font-family:"trebuchet ms",verdana,arial,sans-serif;}</style><g/><defs><marker orient="auto" markerHeight="240" markerWidth="190" refY="7" refX="0" id="MD_PARENT_START"><path d="M 18,7 L9,13 L1,7 L9,1 Z"/></marker></defs><defs><marker orient="auto" markerHeight="28" markerWidth="20" refY="7" refX="19" id="MD_PARENT_END"><path d="M 18,7 L9,13 L1,7 L9,1 Z"/></marker></defs><defs><marker orient="auto" markerHeight="18" markerWidth="18" refY="9" refX="0" id="ONLY_ONE_START"><path d="M9,0 L9,18 M15,0 L15,18" fill="none" stroke="gray"/></marker></defs><defs><marker orient="auto" markerHeight="18" markerWidth="18" refY="9" refX="18" id="ONLY_ONE_END"><path d="M3,0 L3,18 M9,0 L9,18" fill="none" stroke="gray"/></marker></defs><defs><marker orient="auto" markerHeight="18" markerWidth="30" refY="9" refX="0" id="ZERO_OR_ONE_START"><circle r="6" cy="9" cx="21" fill="white" stroke="gray"/><path d="M9,0 L9,18" fill="none" stroke="gray"/></marker></defs><defs><marker orient="auto" markerHeight="18" markerWidth="30" refY="9" refX="30" id="ZERO_OR_ONE_END"><circle r="6" cy="9" cx="9" fill="white" stroke="gray"/><path d="M21,0 L21,18" fill="none" stroke="gray"/></marker></defs><defs><marker orient="auto" markerHeight="36" markerWidth="45" refY="18" refX="18" id="ONE_OR_MORE_START"><path d="M0,18 Q 18,0 36,18 Q 18,36 0,18 M42,9 L42,27" fill="none" stroke="gray"/></marker></defs><defs><marker orient="auto" markerHeight="36" markerWidth="45" refY="18" refX="27" id="ONE_OR_MORE_END"><path d="M3,9 L3,27 M9,18 Q27,0 45,18 Q27,36 9,18" fill="none" stroke="gray"/></marker></defs><defs><marker orient="auto" markerHeight="36" markerWidth="57" refY="18" refX="18" id="ZERO_OR_MORE_START"><circle r="6" cy="18" cx="48" fill="white" stroke="gray"/><path d="M0,18 Q18,0 36,18 Q18,36 0,18" fill="none" stroke="gray"/></marker></defs><defs><marker orient="auto" markerHeight="36" markerWidth="57" refY="18" refX="39" id="ZERO_OR_MORE_END"><circle r="6" cy="18" cx="9" fill="white" stroke="gray"/><path d="M21,18 Q39,0 57,18 Q39,36 21,18" fill="none" stroke="gray"/></marker></defs><path style="stroke: gray; fill: none;" marker-start="url(#ZERO_OR_MORE_START)" marker-end="url(#ZERO_OR_MORE_END)" d="M67.16475463428085,165L62.188735449628574,178.83333333333334C57.2127162649763,192.66666666666666,47.26067789567174,220.33333333333334,45.06243648879724,242.5C42.86419508192274,264.6666666666667,48.419750637478295,281.3333333333333,51.19752841525607,289.6666666666667L53.97530619303385,298" class="er relationshipLine"/><path style="stroke: gray; fill: none;" marker-start="url(#ZERO_OR_MORE_START)" marker-end="url(#ZERO_OR_MORE_END)" d="M120.64197285970053,298L123.41975063747832,289.6666666666667C126.19752841525609,281.3333333333333,131.75308397081164,264.6666666666667,129.55484256393714,242.5C127.35660115706264,220.33333333333334,117.40456278775808,192.66666666666666,112.42854360310581,178.83333333333334L107.45252441845352,165" class="er relationshipLine"/><g transform="translate(30.439056396484375,53 )" id="entity-User-818c511a-4a32-5484-ba70-875d765a9175"><rect height="112" width="113.73916625976562" y="0" x="0" class="er entityBox"/><text style="dominant-baseline: middle; text-anchor: middle; font-size: 12px;" transform="translate(56.86958312988281,12)" y="0" x="0" id="text-entity-User-818c511a-4a32-5484-ba70-875d765a9175" class="er entityLabel">User</text><rect height="22" width="37.39605712890625" y="24" x="0" class="er attributeBoxOdd"/><text style="dominant-baseline: middle; font-size: 10.2px;" transform="translate(5,35)" y="0" x="0" id="text-entity-User-818c511a-4a32-5484-ba70-875d765a9175-attr-1-type" class="er entityLabel">String</text><rect height="22" width="52.327484130859375" y="24" x="37.39605712890625" class="er attributeBoxOdd"/><text style="dominant-baseline: middle; font-size: 10.2px;" transform="translate(42.39605712890625,35)" y="0" x="0" id="text-entity-User-818c511a-4a32-5484-ba70-875d765a9175-attr-1-name" class="er entityLabel">id</text><rect height="22" width="24.015625" y="24" x="89.72354125976562" class="er attributeBoxOdd"/><text style="dominant-baseline: middle; font-size: 10.2px;" transform="translate(94.72354125976562,35)" y="0" x="0" id="text-entity-User-818c511a-4a32-5484-ba70-875d765a9175-attr-1-comment" class="er entityLabel">🗝️</text><rect height="22" width="37.39605712890625" y="46" x="0" class="er attributeBoxEven"/><text style="dominant-baseline: middle; font-size: 10.2px;" transform="translate(5,57)" y="0" x="0" id="text-entity-User-818c511a-4a32-5484-ba70-875d765a9175-attr-2-type" class="er entityLabel">String</text><rect height="22" width="52.327484130859375" y="46" x="37.39605712890625" class="er attributeBoxEven"/><text style="dominant-baseline: middle; font-size: 10.2px;" transform="translate(42.39605712890625,57)" y="0" x="0" id="text-entity-User-818c511a-4a32-5484-ba70-875d765a9175-attr-2-name" class="er entityLabel">email</text><rect height="22" width="24.015625" y="46" x="89.72354125976562" class="er attributeBoxEven"/><text style="dominant-baseline: middle; font-size: 10.2px;" transform="translate(94.72354125976562,57)" y="0" x="0" id="text-entity-User-818c511a-4a32-5484-ba70-875d765a9175-attr-2-comment" class="er entityLabel"/><rect height="22" width="37.39605712890625" y="68" x="0" class="er attributeBoxOdd"/><text style="dominant-baseline: middle; font-size: 10.2px;" transform="translate(5,79)" y="0" x="0" id="text-entity-User-818c511a-4a32-5484-ba70-875d765a9175-attr-3-type" class="er entityLabel">String</text><rect height="22" width="52.327484130859375" y="68" x="37.39605712890625" class="er attributeBoxOdd"/><text style="dominant-baseline: middle; font-size: 10.2px;" transform="translate(42.39605712890625,79)" y="0" x="0" id="text-entity-User-818c511a-4a32-5484-ba70-875d765a9175-attr-3-name" class="er entityLabel">password</text><rect height="22" width="24.015625" y="68" x="89.72354125976562" class="er attributeBoxOdd"/><text style="dominant-baseline: middle; font-size: 10.2px;" transform="translate(94.72354125976562,79)" y="0" x="0" id="text-entity-User-818c511a-4a32-5484-ba70-875d765a9175-attr-3-comment" class="er entityLabel"/><rect height="22" width="37.39605712890625" y="90" x="0" class="er attributeBoxEven"/><text style="dominant-baseline: middle; font-size: 10.2px;" transform="translate(5,101)" y="0" x="0" id="text-entity-User-818c511a-4a32-5484-ba70-875d765a9175-attr-4-type" class="er entityLabel">String</text><rect height="22" width="52.327484130859375" y="90" x="37.39605712890625" class="er attributeBoxEven"/><text style="dominant-baseline: middle; font-size: 10.2px;" transform="translate(42.39605712890625,101)" y="0" x="0" id="text-entity-User-818c511a-4a32-5484-ba70-875d765a9175-attr-4-name" class="er entityLabel">name</text><rect height="22" width="24.015625" y="90" x="89.72354125976562" class="er attributeBoxEven"/><text style="dominant-baseline: middle; font-size: 10.2px;" transform="translate(94.72354125976562,101)" y="0" x="0" id="text-entity-User-818c511a-4a32-5484-ba70-875d765a9175-attr-4-comment" class="er entityLabel"/></g><g transform="translate(244.17822265625,20 )" id="entity-Book-38ec81cf-f0e5-5afc-a4a3-fa6f3d3204f1"><rect height="178" width="116.72418212890625" y="0" x="0" class="er entityBox"/><text style="dominant-baseline: middle; text-anchor: middle; font-size: 12px;" transform="translate(58.362091064453125,12)" y="0" x="0" id="text-entity-Book-38ec81cf-f0e5-5afc-a4a3-fa6f3d3204f1" class="er entityLabel">Book</text><rect height="22" width="37.39605712890625" y="24" x="0" class="er attributeBoxOdd"/><text style="dominant-baseline: middle; font-size: 10.2px;" transform="translate(5,35)" y="0" x="0" id="text-entity-Book-38ec81cf-f0e5-5afc-a4a3-fa6f3d3204f1-attr-1-type" class="er entityLabel">String</text><rect height="22" width="55.3125" y="24" x="37.39605712890625" class="er attributeBoxOdd"/><text style="dominant-baseline: middle; font-size: 10.2px;" transform="translate(42.39605712890625,35)" y="0" x="0" id="text-entity-Book-38ec81cf-f0e5-5afc-a4a3-fa6f3d3204f1-attr-1-name" class="er entityLabel">id</text><rect height="22" width="24.015625" y="24" x="92.70855712890625" class="er attributeBoxOdd"/><text style="dominant-baseline: middle; font-size: 10.2px;" transform="translate(97.70855712890625,35)" y="0" x="0" id="text-entity-Book-38ec81cf-f0e5-5afc-a4a3-fa6f3d3204f1-attr-1-comment" class="er entityLabel">🗝️</text><rect height="22" width="37.39605712890625" y="46" x="0" class="er attributeBoxEven"/><text style="dominant-baseline: middle; font-size: 10.2px;" transform="translate(5,57)" y="0" x="0" id="text-entity-Book-38ec81cf-f0e5-5afc-a4a3-fa6f3d3204f1-attr-2-type" class="er entityLabel">String</text><rect height="22" width="55.3125" y="46" x="37.39605712890625" class="er attributeBoxEven"/><text style="dominant-baseline: middle; font-size: 10.2px;" transform="translate(42.39605712890625,57)" y="0" x="0" id="text-entity-Book-38ec81cf-f0e5-5afc-a4a3-fa6f3d3204f1-attr-2-name" class="er entityLabel">title</text><rect height="22" width="24.015625" y="46" x="92.70855712890625" class="er attributeBoxEven"/><text style="dominant-baseline: middle; font-size: 10.2px;" transform="translate(97.70855712890625,57)" y="0" x="0" id="text-entity-Book-38ec81cf-f0e5-5afc-a4a3-fa6f3d3204f1-attr-2-comment" class="er entityLabel"/><rect height="22" width="37.39605712890625" y="68" x="0" class="er attributeBoxOdd"/><text style="dominant-baseline: middle; font-size: 10.2px;" transform="translate(5,79)" y="0" x="0" id="text-entity-Book-38ec81cf-f0e5-5afc-a4a3-fa6f3d3204f1-attr-3-type" class="er entityLabel">String</text><rect height="22" width="55.3125" y="68" x="37.39605712890625" class="er attributeBoxOdd"/><text style="dominant-baseline: middle; font-size: 10.2px;" transform="translate(42.39605712890625,79)" y="0" x="0" id="text-entity-Book-38ec81cf-f0e5-5afc-a4a3-fa6f3d3204f1-attr-3-name" class="er entityLabel">bannerUrl</text><rect height="22" width="24.015625" y="68" x="92.70855712890625" class="er attributeBoxOdd"/><text style="dominant-baseline: middle; font-size: 10.2px;" transform="translate(97.70855712890625,79)" y="0" x="0" id="text-entity-Book-38ec81cf-f0e5-5afc-a4a3-fa6f3d3204f1-attr-3-comment" class="er entityLabel"/><rect height="22" width="37.39605712890625" y="90" x="0" class="er attributeBoxEven"/><text style="dominant-baseline: middle; font-size: 10.2px;" transform="translate(5,101)" y="0" x="0" id="text-entity-Book-38ec81cf-f0e5-5afc-a4a3-fa6f3d3204f1-attr-4-type" class="er entityLabel">String</text><rect height="22" width="55.3125" y="90" x="37.39605712890625" class="er attributeBoxEven"/><text style="dominant-baseline: middle; font-size: 10.2px;" transform="translate(42.39605712890625,101)" y="0" x="0" id="text-entity-Book-38ec81cf-f0e5-5afc-a4a3-fa6f3d3204f1-attr-4-name" class="er entityLabel">author</text><rect height="22" width="24.015625" y="90" x="92.70855712890625" class="er attributeBoxEven"/><text style="dominant-baseline: middle; font-size: 10.2px;" transform="translate(97.70855712890625,101)" y="0" x="0" id="text-entity-Book-38ec81cf-f0e5-5afc-a4a3-fa6f3d3204f1-attr-4-comment" class="er entityLabel"/><rect height="22" width="37.39605712890625" y="112" x="0" class="er attributeBoxOdd"/><text style="dominant-baseline: middle; font-size: 10.2px;" transform="translate(5,123)" y="0" x="0" id="text-entity-Book-38ec81cf-f0e5-5afc-a4a3-fa6f3d3204f1-attr-5-type" class="er entityLabel">String</text><rect height="22" width="55.3125" y="112" x="37.39605712890625" class="er attributeBoxOdd"/><text style="dominant-baseline: middle; font-size: 10.2px;" transform="translate(42.39605712890625,123)" y="0" x="0" id="text-entity-Book-38ec81cf-f0e5-5afc-a4a3-fa6f3d3204f1-attr-5-name" class="er entityLabel">isbn</text><rect height="22" width="24.015625" y="112" x="92.70855712890625" class="er attributeBoxOdd"/><text style="dominant-baseline: middle; font-size: 10.2px;" transform="translate(97.70855712890625,123)" y="0" x="0" id="text-entity-Book-38ec81cf-f0e5-5afc-a4a3-fa6f3d3204f1-attr-5-comment" class="er entityLabel"/><rect height="22" width="37.39605712890625" y="134" x="0" class="er attributeBoxEven"/><text style="dominant-baseline: middle; font-size: 10.2px;" transform="translate(5,145)" y="0" x="0" id="text-entity-Book-38ec81cf-f0e5-5afc-a4a3-fa6f3d3204f1-attr-6-type" class="er entityLabel">Float</text><rect height="22" width="55.3125" y="134" x="37.39605712890625" class="er attributeBoxEven"/><text style="dominant-baseline: middle; font-size: 10.2px;" transform="translate(42.39605712890625,145)" y="0" x="0" id="text-entity-Book-38ec81cf-f0e5-5afc-a4a3-fa6f3d3204f1-attr-6-name" class="er entityLabel">price</text><rect height="22" width="24.015625" y="134" x="92.70855712890625" class="er attributeBoxEven"/><text style="dominant-baseline: middle; font-size: 10.2px;" transform="translate(97.70855712890625,145)" y="0" x="0" id="text-entity-Book-38ec81cf-f0e5-5afc-a4a3-fa6f3d3204f1-attr-6-comment" class="er entityLabel"/><rect height="22" width="37.39605712890625" y="156" x="0" class="er attributeBoxOdd"/><text style="dominant-baseline: middle; font-size: 10.2px;" transform="translate(5,167)" y="0" x="0" id="text-entity-Book-38ec81cf-f0e5-5afc-a4a3-fa6f3d3204f1-attr-7-type" class="er entityLabel">String</text><rect height="22" width="55.3125" y="156" x="37.39605712890625" class="er attributeBoxOdd"/><text style="dominant-baseline: middle; font-size: 10.2px;" transform="translate(42.39605712890625,167)" y="0" x="0" id="text-entity-Book-38ec81cf-f0e5-5afc-a4a3-fa6f3d3204f1-attr-7-name" class="er entityLabel">synopsis</text><rect height="22" width="24.015625" y="156" x="92.70855712890625" class="er attributeBoxOdd"/><text style="dominant-baseline: middle; font-size: 10.2px;" transform="translate(97.70855712890625,167)" y="0" x="0" id="text-entity-Book-38ec81cf-f0e5-5afc-a4a3-fa6f3d3204f1-attr-7-comment" class="er entityLabel">❓</text></g><g transform="translate(20,298 )" id="entity-Group-c50154b9-939c-5428-9ef3-b05ac51a8a04"><rect height="200" width="134.61727905273438" y="0" x="0" class="er entityBox"/><text style="dominant-baseline: middle; text-anchor: middle; font-size: 12px;" transform="translate(67.30863952636719,12)" y="0" x="0" id="text-entity-Group-c50154b9-939c-5428-9ef3-b05ac51a8a04" class="er entityLabel">Group</text><rect height="22" width="54.095550537109375" y="24" x="0" class="er attributeBoxOdd"/><text style="dominant-baseline: middle; font-size: 10.2px;" transform="translate(5,35)" y="0" x="0" id="text-entity-Group-c50154b9-939c-5428-9ef3-b05ac51a8a04-attr-1-type" class="er entityLabel">String</text><rect height="22" width="56.506103515625" y="24" x="54.095550537109375" class="er attributeBoxOdd"/><text style="dominant-baseline: middle; font-size: 10.2px;" transform="translate(59.095550537109375,35)" y="0" x="0" id="text-entity-Group-c50154b9-939c-5428-9ef3-b05ac51a8a04-attr-1-name" class="er entityLabel">id</text><rect height="22" width="24.015625" y="24" x="110.60165405273438" class="er attributeBoxOdd"/><text style="dominant-baseline: middle; font-size: 10.2px;" transform="translate(115.60165405273438,35)" y="0" x="0" id="text-entity-Group-c50154b9-939c-5428-9ef3-b05ac51a8a04-attr-1-comment" class="er entityLabel">🗝️</text><rect height="22" width="54.095550537109375" y="46" x="0" class="er attributeBoxEven"/><text style="dominant-baseline: middle; font-size: 10.2px;" transform="translate(5,57)" y="0" x="0" id="text-entity-Group-c50154b9-939c-5428-9ef3-b05ac51a8a04-attr-2-type" class="er entityLabel">String</text><rect height="22" width="56.506103515625" y="46" x="54.095550537109375" class="er attributeBoxEven"/><text style="dominant-baseline: middle; font-size: 10.2px;" transform="translate(59.095550537109375,57)" y="0" x="0" id="text-entity-Group-c50154b9-939c-5428-9ef3-b05ac51a8a04-attr-2-name" class="er entityLabel">name</text><rect height="22" width="24.015625" y="46" x="110.60165405273438" class="er attributeBoxEven"/><text style="dominant-baseline: middle; font-size: 10.2px;" transform="translate(115.60165405273438,57)" y="0" x="0" id="text-entity-Group-c50154b9-939c-5428-9ef3-b05ac51a8a04-attr-2-comment" class="er entityLabel"/><rect height="22" width="54.095550537109375" y="68" x="0" class="er attributeBoxOdd"/><text style="dominant-baseline: middle; font-size: 10.2px;" transform="translate(5,79)" y="0" x="0" id="text-entity-Group-c50154b9-939c-5428-9ef3-b05ac51a8a04-attr-3-type" class="er entityLabel">String</text><rect height="22" width="56.506103515625" y="68" x="54.095550537109375" class="er attributeBoxOdd"/><text style="dominant-baseline: middle; font-size: 10.2px;" transform="translate(59.095550537109375,79)" y="0" x="0" id="text-entity-Group-c50154b9-939c-5428-9ef3-b05ac51a8a04-attr-3-name" class="er entityLabel">discord</text><rect height="22" width="24.015625" y="68" x="110.60165405273438" class="er attributeBoxOdd"/><text style="dominant-baseline: middle; font-size: 10.2px;" transform="translate(115.60165405273438,79)" y="0" x="0" id="text-entity-Group-c50154b9-939c-5428-9ef3-b05ac51a8a04-attr-3-comment" class="er entityLabel"/><rect height="22" width="54.095550537109375" y="90" x="0" class="er attributeBoxEven"/><text style="dominant-baseline: middle; font-size: 10.2px;" transform="translate(5,101)" y="0" x="0" id="text-entity-Group-c50154b9-939c-5428-9ef3-b05ac51a8a04-attr-4-type" class="er entityLabel">String</text><rect height="22" width="56.506103515625" y="90" x="54.095550537109375" class="er attributeBoxEven"/><text style="dominant-baseline: middle; font-size: 10.2px;" transform="translate(59.095550537109375,101)" y="0" x="0" id="text-entity-Group-c50154b9-939c-5428-9ef3-b05ac51a8a04-attr-4-name" class="er entityLabel">weekDays</text><rect height="22" width="24.015625" y="90" x="110.60165405273438" class="er attributeBoxEven"/><text style="dominant-baseline: middle; font-size: 10.2px;" transform="translate(115.60165405273438,101)" y="0" x="0" id="text-entity-Group-c50154b9-939c-5428-9ef3-b05ac51a8a04-attr-4-comment" class="er entityLabel"/><rect height="22" width="54.095550537109375" y="112" x="0" class="er attributeBoxOdd"/><text style="dominant-baseline: middle; font-size: 10.2px;" transform="translate(5,123)" y="0" x="0" id="text-entity-Group-c50154b9-939c-5428-9ef3-b05ac51a8a04-attr-5-type" class="er entityLabel">Int</text><rect height="22" width="56.506103515625" y="112" x="54.095550537109375" class="er attributeBoxOdd"/><text style="dominant-baseline: middle; font-size: 10.2px;" transform="translate(59.095550537109375,123)" y="0" x="0" id="text-entity-Group-c50154b9-939c-5428-9ef3-b05ac51a8a04-attr-5-name" class="er entityLabel">hourStart</text><rect height="22" width="24.015625" y="112" x="110.60165405273438" class="er attributeBoxOdd"/><text style="dominant-baseline: middle; font-size: 10.2px;" transform="translate(115.60165405273438,123)" y="0" x="0" id="text-entity-Group-c50154b9-939c-5428-9ef3-b05ac51a8a04-attr-5-comment" class="er entityLabel"/><rect height="22" width="54.095550537109375" y="134" x="0" class="er attributeBoxEven"/><text style="dominant-baseline: middle; font-size: 10.2px;" transform="translate(5,145)" y="0" x="0" id="text-entity-Group-c50154b9-939c-5428-9ef3-b05ac51a8a04-attr-6-type" class="er entityLabel">Int</text><rect height="22" width="56.506103515625" y="134" x="54.095550537109375" class="er attributeBoxEven"/><text style="dominant-baseline: middle; font-size: 10.2px;" transform="translate(59.095550537109375,145)" y="0" x="0" id="text-entity-Group-c50154b9-939c-5428-9ef3-b05ac51a8a04-attr-6-name" class="er entityLabel">hourEnd</text><rect height="22" width="24.015625" y="134" x="110.60165405273438" class="er attributeBoxEven"/><text style="dominant-baseline: middle; font-size: 10.2px;" transform="translate(115.60165405273438,145)" y="0" x="0" id="text-entity-Group-c50154b9-939c-5428-9ef3-b05ac51a8a04-attr-6-comment" class="er entityLabel"/><rect height="22" width="54.095550537109375" y="156" x="0" class="er attributeBoxOdd"/><text style="dominant-baseline: middle; font-size: 10.2px;" transform="translate(5,167)" y="0" x="0" id="text-entity-Group-c50154b9-939c-5428-9ef3-b05ac51a8a04-attr-7-type" class="er entityLabel">DateTime</text><rect height="22" width="56.506103515625" y="156" x="54.095550537109375" class="er attributeBoxOdd"/><text style="dominant-baseline: middle; font-size: 10.2px;" transform="translate(59.095550537109375,167)" y="0" x="0" id="text-entity-Group-c50154b9-939c-5428-9ef3-b05ac51a8a04-attr-7-name" class="er entityLabel">createdAt</text><rect height="22" width="24.015625" y="156" x="110.60165405273438" class="er attributeBoxOdd"/><text style="dominant-baseline: middle; font-size: 10.2px;" transform="translate(115.60165405273438,167)" y="0" x="0" id="text-entity-Group-c50154b9-939c-5428-9ef3-b05ac51a8a04-attr-7-comment" class="er entityLabel"/><rect height="22" width="54.095550537109375" y="178" x="0" class="er attributeBoxEven"/><text style="dominant-baseline: middle; font-size: 10.2px;" transform="translate(5,189)" y="0" x="0" id="text-entity-Group-c50154b9-939c-5428-9ef3-b05ac51a8a04-attr-8-type" class="er entityLabel">Boolean</text><rect height="22" width="56.506103515625" y="178" x="54.095550537109375" class="er attributeBoxEven"/><text style="dominant-baseline: middle; font-size: 10.2px;" transform="translate(59.095550537109375,189)" y="0" x="0" id="text-entity-Group-c50154b9-939c-5428-9ef3-b05ac51a8a04-attr-8-name" class="er entityLabel">isPrivate</text><rect height="22" width="24.015625" y="178" x="110.60165405273438" class="er attributeBoxEven"/><text style="dominant-baseline: middle; font-size: 10.2px;" transform="translate(115.60165405273438,189)" y="0" x="0" id="text-entity-Group-c50154b9-939c-5428-9ef3-b05ac51a8a04-attr-8-comment" class="er entityLabel"/></g><rect height="14" width="35.369140625" y="223.61077880859375" x="29.147411346435547" class="er relationshipLabelBox"/><text style="text-anchor: middle; dominant-baseline: middle; font-size: 12px;" y="230.61077880859375" x="46.83198165893555" id="rel1" class="er relationshipLabel">groups</text><rect height="14" width="49.361328125" y="223.61077880859375" x="103.10462951660156" class="er relationshipLabelBox"/><text style="text-anchor: middle; dominant-baseline: middle; font-size: 12px;" y="230.61077880859375" x="127.78529357910156" id="rel2" class="er relationshipLabel">members</text></svg>